<svg xmlns="http://www.w3.org/2000/svg" width="40.132" height="37.3" viewBox="0 0 40.132 37.3">
    <defs>
        <style>
            .prefix__cls-1{fill:#15b2ec}
        </style>
    </defs>
    <g id="prefix__shopping">
        <path id="prefix__Path_20" d="M214.63 300.633a.784.784 0 1 0-1.109 0 .785.785 0 0 0 1.109 0zm0 0" class="prefix__cls-1" data-name="Path 20" transform="translate(-196.573 -275.835)"/>
        <path id="prefix__Path_21" d="M224.792 62.572v1.568a4.7 4.7 0 0 0 9.406 0v-1.568a.784.784 0 0 0 0-1.568h-1.568a.784.784 0 1 0 0 1.568v1.568a3.136 3.136 0 0 1-6.271 0v-1.568a.784.784 0 1 0 0-1.568h-1.568a.784.784 0 1 0 0 1.568zm0 0" class="prefix__cls-1" data-name="Path 21" transform="translate(-206.45 -56.223)"/>
        <path id="prefix__Path_22" d="M9.11 37.07a.784.784 0 0 0 1.108 0l2.407-2.407a3.629 3.629 0 0 0 1.053-2.941l.863-.833a3.637 3.637 0 0 1 2.535-1.024H27.4a7.015 7.015 0 0 0 4.92-2 .735.735 0 0 0 .055-.06l7.022-8.432a3.136 3.136 0 0 0-4.776-4.073l-.758.784V.783A.784.784 0 0 0 33.079 0H12.933a.784.784 0 0 0-.784.784v17.561a9.429 9.429 0 0 0-6.74 5.276 3.62 3.62 0 0 0-2.76 1.064L.231 27.092a.784.784 0 0 0 0 1.11zM32.3 1.567V17.71l-2.269 2.345a3.149 3.149 0 0 0-2.435-1.164H18.5a.433.433 0 0 1-.16-.034 10.129 10.129 0 0 0-3.843-.75c-.262 0-.524.009-.784.027V1.567zM13.046 19.778a8.906 8.906 0 0 1 4.709.532 1.994 1.994 0 0 0 .748.149h9.088a1.568 1.568 0 1 1 0 3.135h-6.82a.784.784 0 0 0 0 1.568h6.82a3.139 3.139 0 0 0 3.135-3.135 3.171 3.171 0 0 0-.028-.412c.164-.167 4.9-5.068 5.066-5.238l.035-.039a1.568 1.568 0 1 1 2.393 2.027l-7 8.4A5.454 5.454 0 0 1 27.4 28.3H17.076a5.2 5.2 0 0 0-3.624 1.463l-.346.334a3.649 3.649 0 0 0-.481-.593L7.81 24.686a3.66 3.66 0 0 0-.865-.64 7.848 7.848 0 0 1 6.1-4.269zm-9.289 6.017a2.079 2.079 0 0 1 2.944 0l4.815 4.815a2.079 2.079 0 0 1 0 2.944l-1.853 1.854-7.769-7.759zm0 0" class="prefix__cls-1" data-name="Path 22"/>
    </g>
</svg>
