<svg xmlns="http://www.w3.org/2000/svg" id="prefix__support" width="40.122" height="40.122" viewBox="0 0 40.122 40.122">
    <defs>
        <style>
            .prefix__cls-1{fill:#f5a416}
        </style>
    </defs>
    <g id="prefix__Group_95" data-name="Group 95" transform="translate(3.878)">
        <g id="prefix__Group_94" data-name="Group 94">
            <path id="prefix__Path_29" d="M49.227 0A9.227 9.227 0 0 0 40 9.227v6.766a4.311 4.311 0 0 0 4.306 4.307h.615v-1.23h-.615a3.079 3.079 0 0 1-3.076-3.076V9.227a8 8 0 1 1 15.993 0v6.766a3.079 3.079 0 0 1-3.076 3.076h-.615V20.3h.615a4.311 4.311 0 0 0 4.306-4.306V9.227A9.227 9.227 0 0 0 49.227 0z" class="prefix__cls-1" data-name="Path 29" transform="translate(-40)"/>
        </g>
    </g>
    <g id="prefix__Group_97" data-name="Group 97" transform="translate(3.076 30.838)">
        <g id="prefix__Group_96" data-name="Group 96">
            <path id="prefix__Path_30" d="M42 360.615l.45-.708-1.039-.659-.45.709a6.131 6.131 0 0 0 .254 6.94v1.636h1.23v-1.845a.615.615 0 0 0-.135-.384 4.9 4.9 0 0 1-.31-5.689z" class="prefix__cls-1" data-name="Path 30" transform="translate(-40.003 -359.248)"/>
        </g>
    </g>
    <g id="prefix__Group_99" data-name="Group 99" transform="translate(25.975)">
        <g id="prefix__Group_98" data-name="Group 98">
            <path id="prefix__Path_31" d="M307.072 0h-8A3.079 3.079 0 0 0 296 3.076v6.151a3.079 3.079 0 0 0 3.076 3.076h1.23v2.46a.615.615 0 0 0 .38.568.607.607 0 0 0 .236.047.615.615 0 0 0 .435-.18l2.9-2.9h2.821a3.079 3.079 0 0 0 3.076-3.076V3.076A3.079 3.079 0 0 0 307.072 0zm1.845 9.227a1.845 1.845 0 0 1-1.845 1.845H304a.615.615 0 0 0-.435.18l-2.026 2.026v-1.591a.615.615 0 0 0-.615-.615h-1.845a1.845 1.845 0 0 1-1.845-1.845V3.076a1.845 1.845 0 0 1 1.845-1.845h8a1.845 1.845 0 0 1 1.845 1.845z" class="prefix__cls-1" data-name="Path 31" transform="translate(-296)"/>
        </g>
    </g>
    <g id="prefix__Group_101" data-name="Group 101" transform="translate(28.252 3.21)">
        <g id="prefix__Group_100" data-name="Group 100">
            <path id="prefix__Rectangle_53" d="M0 0H4.815V0.802H0z" class="prefix__cls-1" data-name="Rectangle 53"/>
        </g>
    </g>
    <g id="prefix__Group_103" data-name="Group 103" transform="translate(34.511 3.21)">
        <g id="prefix__Group_102" data-name="Group 102">
            <path id="prefix__Rectangle_54" d="M0 0H2V1H0z" class="prefix__cls-1" data-name="Rectangle 54" transform="translate(.489 -.21)"/>
        </g>
    </g>
    <g id="prefix__Group_105" data-name="Group 105" transform="translate(28.894 5.617)">
        <g id="prefix__Group_104" data-name="Group 104">
            <path id="prefix__Rectangle_55" d="M0 0H8V1H0z" class="prefix__cls-1" data-name="Rectangle 55" transform="translate(.106 .383)"/>
        </g>
    </g>
    <g id="prefix__Group_107" data-name="Group 107" transform="translate(28.252 8.739)">
        <g id="prefix__Group_106" data-name="Group 106">
            <path id="prefix__Rectangle_56" d="M0 0H4.815V0.802H0z" class="prefix__cls-1" data-name="Rectangle 56"/>
        </g>
    </g>
    <g id="prefix__Group_109" data-name="Group 109" transform="translate(20.866 30.838)">
        <g id="prefix__Group_108" data-name="Group 108">
            <path id="prefix__Path_32" d="M249.713 359.957l-.45-.709-1.039.659.45.709a4.9 4.9 0 0 1-.311 5.687.615.615 0 0 0-.135.384v1.845h1.23V366.9a6.131 6.131 0 0 0 .255-6.943z" class="prefix__cls-1" data-name="Path 32" transform="translate(-248.224 -359.248)"/>
        </g>
    </g>
    <g id="prefix__Group_111" data-name="Group 111" transform="translate(0 5.37)">
        <g id="prefix__Group_110" data-name="Group 110">
            <path id="prefix__Path_33" d="M39.454 86.975h-6.019a4.71 4.71 0 0 0-4.672 4.552L26.748 95.2v-2.8a4.719 4.719 0 0 0-4.681-4.745h-2.444l-.018-.014-.012.014h-1.538a1.347 1.347 0 0 1-1.337-1.355v-1.6a6.8 6.8 0 0 0 3.344-5.861v-5.421a6.866 6.866 0 0 0-.8-3.217.664.664 0 0 0-.869-.291l-11.319 5.4a.678.678 0 0 0-.384.613v2.919a6.8 6.8 0 0 0 3.341 5.858v1.6a1.347 1.347 0 0 1-1.337 1.356H4.681A4.719 4.719 0 0 0 0 92.4v12.2h1.337V92.4a3.371 3.371 0 0 1 3.344-3.389h2.128l6.022 8.528a.666.666 0 0 0 .535.283h.009a.666.666 0 0 0 .535-.271l6.353-8.541h1.806a3.371 3.371 0 0 1 3.342 3.39v5.42a.667.667 0 0 0 1.253.329l3.152-5.749h3.834l-6.52 12.2h1.521l6.523-12.2h.267a4.719 4.719 0 0 0 4.681-4.745.673.673 0 0 0-.668-.68zm-31.43-8.134v-2.489l10.326-4.925a5.488 5.488 0 0 1 .374 1.991v5.423a5.35 5.35 0 1 1-10.7 0zM13.388 96l-2.064-2.923h4.237zm3.185-4.278h-6.208L8.45 89.008h.243a2.693 2.693 0 0 0 2.675-2.708v-.99a6.6 6.6 0 0 0 4.012 0v.99a2.693 2.693 0 0 0 2.675 2.711h.535zm18.868-.678h-5.282a3.36 3.36 0 0 1 3.277-2.711h5.283a3.36 3.36 0 0 1-3.278 2.709z" class="prefix__cls-1" data-name="Path 33" transform="translate(0 -69.847)"/>
        </g>
    </g>
</svg>
