<svg xmlns="http://www.w3.org/2000/svg" width="28" height="25.752" viewBox="0 0 28 25.752">
  <path id="onlayn_poçt" data-name="onlayn poçt" d="M24.1,25.473l-2.688-3.244-1.526,2.106a.82.82,0,0,1-.448.3.8.8,0,0,1-.984-.568l-3.138-11.7a.8.8,0,0,1,1.119-.935l0-.011,10.948,5.12a.8.8,0,0,1,.439.446.79.79,0,0,1-.018.624.935.935,0,0,1-.369.384L25.1,19.11l2.7,3.248a.786.786,0,0,1-.092,1.131L25.24,25.551a.526.526,0,0,1-.315.172.8.8,0,0,1-.213.029A.807.807,0,0,1,24.1,25.473ZM22.2,20.694l.425.52,2.193,2.622,1.271-1.063-2.2-2.633-.434-.519A1.06,1.06,0,0,1,23.8,18l.62-.3.85-.425-7.99-3.739,2.288,8.535.565-.78.415-.548a1.036,1.036,0,0,1,.813-.434h.03A1.035,1.035,0,0,1,22.2,20.694Zm-19.649.053A2.579,2.579,0,0,1,0,18.154V2.593A2.579,2.579,0,0,1,2.548,0H22.934a2.58,2.58,0,0,1,2.549,2.593V11.67H22.934V5.186L12.741,11.67,2.548,5.186V18.154H15.289v2.593Zm10.2-11.67L22.94,2.593H2.548Z" fill="#1abc9c"/>
</svg>
