<svg xmlns="http://www.w3.org/2000/svg" width="26.663" height="28" viewBox="0 0 26.663 28">
  <path id="onlayn_kuryer" data-name="onlayn kuryer" d="M21.452,28a.827.827,0,0,1-.751-.468l-1.8-3.937L16.82,25.279a.84.84,0,0,1-.523.174.827.827,0,0,1-.827-.827V12.171a.828.828,0,0,1,.827-.827l-.008,0a.827.827,0,0,1,.534.2l.011-.01,9.507,8a.817.817,0,0,1,.133,1.175.956.956,0,0,1-.468.283l-2.621.488,1.822,3.948a.808.808,0,0,1-.392,1.1l-3,1.392a.55.55,0,0,1-.3.089A.558.558,0,0,1,21.452,28Zm-2.106-6.324a1.069,1.069,0,0,1,.73.607l.283.63,1.48,3.188,1.546-.718-1.481-3.2-.293-.631a1.091,1.091,0,0,1,.772-1.523l.7-.133.958-.2L17.1,13.858v9.085l.772-.62.554-.434a1.066,1.066,0,0,1,.924-.215ZM0,21.333v-4C0,13.786,7.106,12,10.666,12a9.549,9.549,0,0,0-1.08,2.573c-3.587.307-7.053,1.987-7.053,2.76V18.8H9.6a9.268,9.268,0,0,0,1.067,2.533Zm5.333-16a5.333,5.333,0,1,1,9.573,3.24,8.493,8.493,0,0,0-3.026,1.961l-1.213.133A5.334,5.334,0,0,1,5.333,5.333Zm2.534,0a2.8,2.8,0,1,0,2.8-2.8A2.8,2.8,0,0,0,7.867,5.333Z" fill="#2ecc71"/>
</svg>
