<svg xmlns="http://www.w3.org/2000/svg" width="28" height="25.424" viewBox="0 0 28 25.424">
  <path id="operativ_müştəri_xidməti" data-name="operativ müştəri xidməti" d="M25.408,19.5a10.151,10.151,0,0,0,.336-6.734,12.663,12.663,0,0,1-2.856.322A12.7,12.7,0,0,1,12.5,7.708,12.894,12.894,0,0,1,5.878,14.54a7.046,7.046,0,0,0-.056,1.092,10.163,10.163,0,0,0,14.336,9.282c.8,1.526,1.162,2.282,1.134,2.282A18.229,18.229,0,0,1,16,28.344a12.717,12.717,0,0,1-12.138-8.89H2v-6.37H3.526a12.727,12.727,0,0,1,21.462-6.44,12.588,12.588,0,0,1,3.458,6.44H30V19.37h0v.084h-.084l-4.984,4.578-7.42-.84V20.854h6.762L25.408,19.5M12.178,15.31a1.546,1.546,0,0,1,1.12.476,1.584,1.584,0,1,1-1.12-.476m7.63,0a1.589,1.589,0,1,1-1.6,1.6,1.583,1.583,0,0,1,1.6-1.6Z" transform="translate(-2 -2.92)" fill="#5d4068"/>
</svg>
