<svg xmlns="http://www.w3.org/2000/svg" width="28" height="25.2" viewBox="0 0 28 25.2">
  <path id="qapıda_ödəmə" data-name="qapıda ödəmə" d="M18.1,23.6H4.8V15.2H19.22a7.656,7.656,0,0,1,5.88-2.8A7.838,7.838,0,0,1,30,14.22V6.8A2.8,2.8,0,0,0,27.2,4H4.8A2.8,2.8,0,0,0,2,6.8V23.6a2.8,2.8,0,0,0,2.8,2.8H19.64a17.935,17.935,0,0,1-1.54-2.8M4.8,6.8H27.2V9.6H4.8V6.8m20.3,8.4a4.96,4.96,0,0,0-4.9,4.9c0,3.64,4.9,9.1,4.9,9.1S30,23.74,30,20.1a4.96,4.96,0,0,0-4.9-4.9m0,6.72a1.68,1.68,0,1,1,0-3.36,1.807,1.807,0,0,1,1.68,1.68A1.614,1.614,0,0,1,25.1,21.92Z" transform="translate(-2 -4)" fill="#9b59b6"/>
</svg>
