<svg xmlns="http://www.w3.org/2000/svg" width="134.991" height="39.998" viewBox="0 0 134.991 39.998">
  <g id="appstore" transform="translate(-1299 -4061)">
    <g id="Path_14" data-name="Path 14" transform="translate(1299 4061)" fill="none">
      <path d="M130.261,40H4.731A4.731,4.731,0,0,1,0,35.277V4.727A4.735,4.735,0,0,1,4.731,0H130.26a4.737,4.737,0,0,1,4.731,4.727V35.276A4.731,4.731,0,0,1,130.261,40Z" stroke="none"/>
      <path d="M 130.2606811523438 38.99766159057617 C 131.2550811767578 38.99766159057617 132.1915893554688 38.6097526550293 132.8976898193359 37.90538787841797 C 133.6034698486328 37.20133590698242 133.9917144775391 36.26768112182617 133.9909515380859 35.2756233215332 L 133.9909515380859 4.728916168212891 C 133.987060546875 2.675370454788208 132.3126678466797 1.002588748931885 130.2596893310547 1.000006914138794 L 4.732119083404541 1.000006914138794 C 2.67726469039917 1.001734137535095 1.00304651260376 2.674334049224854 1.000010132789612 4.727025032043457 L 1.000010132789612 35.27451705932617 C 1.004337430000305 37.32744216918945 2.678191900253296 38.99764251708984 4.731282711029053 38.99766159057617 L 130.2606811523438 38.99766159057617 M 130.2606811523438 39.99766159057617 L 130.2606658935547 39.99766159057617 L 4.731282711029053 39.99766159057617 C 2.122610092163086 39.99764251708984 0.005519212689250708 37.88558959960938 1.012184839055408e-05 35.27662658691406 L 1.012184839055408e-05 4.727025032043457 C 0.003864667378365993 2.116788625717163 2.120355606079102 0.002206891309469938 4.731282711029053 6.891424163768534e-06 L 130.2596893310547 6.891424163768534e-06 C 132.8701782226563 0.003297800431028008 134.9860076904297 2.11724328994751 134.9909515380859 4.727025032043457 L 134.9909515380859 35.2756233215332 C 134.9929809570313 37.88018798828125 132.866943359375 39.99766159057617 130.2606811523438 39.99766159057617 Z" stroke="none" fill="#7b7b93"/>
    </g>
    <path id="Path_16" data-name="Path 16" d="M68.54,38.445A5.8,5.8,0,0,1,71.3,33.58a5.941,5.941,0,0,0-4.678-2.529c-1.968-.207-3.877,1.177-4.879,1.177-1.022,0-2.566-1.157-4.23-1.123a6.229,6.229,0,0,0-5.243,3.2c-2.267,3.924-.576,9.69,1.6,12.862,1.087,1.554,2.356,3.288,4.018,3.227,1.626-.066,2.233-1.035,4.2-1.035,1.944,0,2.514,1.035,4.209,1,1.745-.027,2.843-1.56,3.892-3.128a12.82,12.82,0,0,0,1.78-3.624,5.61,5.61,0,0,1-3.422-5.155Zm-3.2-9.48a5.706,5.706,0,0,0,1.307-4.09,5.816,5.816,0,0,0-3.76,1.944,5.43,5.43,0,0,0-1.341,3.939A4.8,4.8,0,0,0,65.338,28.965Z" transform="translate(1260.603 4042.344)" fill="#7b7b93"/>
    <g id="Group_66" data-name="Group 66" transform="translate(1341.45 4079.003)">
      <path id="Path_18" data-name="Path 18" d="M181.052,85.524H178.78l-1.245-3.91h-4.326l-1.186,3.91h-2.212L174.1,72.213h2.647l4.306,13.311Zm-3.892-5.55L176.035,76.5q-.179-.533-.671-2.508h-.04q-.2.849-.632,2.508l-1.107,3.476Zm14.9.633a5.434,5.434,0,0,1-1.331,3.87,3.9,3.9,0,0,1-2.959,1.264,2.963,2.963,0,0,1-2.741-1.361v5.036h-2.133V79.08q0-1.538-.079-3.155h1.876l.119,1.521h.04a3.8,3.8,0,0,1,6.074-.377A5.306,5.306,0,0,1,192.055,80.607Zm-2.173.078a3.956,3.956,0,0,0-.632-2.311,2.186,2.186,0,0,0-1.857-.947,2.219,2.219,0,0,0-1.432.523,2.426,2.426,0,0,0-.839,1.373,2.784,2.784,0,0,0-.1.649v1.6a2.567,2.567,0,0,0,.642,1.768,2.132,2.132,0,0,0,1.669.721,2.186,2.186,0,0,0,1.876-.928A4.084,4.084,0,0,0,189.882,80.685Zm13.215-.078a5.434,5.434,0,0,1-1.331,3.87,3.9,3.9,0,0,1-2.96,1.264,2.963,2.963,0,0,1-2.741-1.361v5.036h-2.133V79.08q0-1.538-.079-3.155h1.876l.119,1.521h.04a3.8,3.8,0,0,1,6.075-.377A5.312,5.312,0,0,1,203.1,80.607Zm-2.174.078a3.956,3.956,0,0,0-.633-2.311,2.182,2.182,0,0,0-1.855-.947,2.228,2.228,0,0,0-1.434.523,2.425,2.425,0,0,0-.838,1.373,2.849,2.849,0,0,0-.1.649v1.6a2.576,2.576,0,0,0,.641,1.768,2.137,2.137,0,0,0,1.671.721,2.184,2.184,0,0,0,1.876-.928A4.085,4.085,0,0,0,200.924,80.685Zm14.52,1.105a3.555,3.555,0,0,1-1.184,2.766,5.247,5.247,0,0,1-3.627,1.165,6.332,6.332,0,0,1-3.448-.829l.493-1.777a5.935,5.935,0,0,0,3.081.83,2.908,2.908,0,0,0,1.876-.543,1.774,1.774,0,0,0,.673-1.45,1.859,1.859,0,0,0-.554-1.363,5.139,5.139,0,0,0-1.837-1.026q-3.5-1.3-3.5-3.813a3.366,3.366,0,0,1,1.235-2.686,4.883,4.883,0,0,1,3.27-1.047,6.463,6.463,0,0,1,3.022.632l-.535,1.738a5.286,5.286,0,0,0-2.558-.612,2.6,2.6,0,0,0-1.765.553,1.583,1.583,0,0,0-.535,1.206,1.63,1.63,0,0,0,.613,1.3,6.91,6.91,0,0,0,1.935,1.026,6.56,6.56,0,0,1,2.528,1.618,3.372,3.372,0,0,1,.813,2.309Zm7.07-4.264h-2.351v4.66q0,1.778,1.245,1.776a3.748,3.748,0,0,0,.947-.1l.059,1.619a4.834,4.834,0,0,1-1.659.236,2.557,2.557,0,0,1-1.976-.771,3.781,3.781,0,0,1-.711-2.588V77.522h-1.4v-1.6h1.4V74.164l2.095-.632v2.39h2.351v1.6Zm10.587,3.12a5.264,5.264,0,0,1-1.265,3.634,4.508,4.508,0,0,1-3.516,1.461,4.3,4.3,0,0,1-3.369-1.4,5.1,5.1,0,0,1-1.255-3.535,5.222,5.222,0,0,1,1.294-3.653,4.485,4.485,0,0,1,3.488-1.422,4.388,4.388,0,0,1,3.4,1.4,5.038,5.038,0,0,1,1.226,3.513Zm-2.211.049a4.3,4.3,0,0,0-.571-2.264,2.111,2.111,0,0,0-1.917-1.143,2.142,2.142,0,0,0-1.956,1.143,4.368,4.368,0,0,0-.572,2.3A4.284,4.284,0,0,0,226.446,83a2.188,2.188,0,0,0,3.855-.019A4.314,4.314,0,0,0,230.89,80.695Zm9.147-2.894a3.714,3.714,0,0,0-.672-.059,2.013,2.013,0,0,0-1.739.85,3.2,3.2,0,0,0-.532,1.9v5.036h-2.133V78.948q0-1.511-.062-3.022h1.858l.078,1.836h.059a3.293,3.293,0,0,1,1.067-1.521,2.58,2.58,0,0,1,1.542-.514,3.425,3.425,0,0,1,.533.039l0,2.034Zm9.54,2.47a5,5,0,0,1-.078.967h-6.4a2.783,2.783,0,0,0,.928,2.174,3.175,3.175,0,0,0,2.093.67,7.079,7.079,0,0,0,2.589-.453l.334,1.479a8.007,8.007,0,0,1-3.219.593,4.667,4.667,0,0,1-3.508-1.312,4.851,4.851,0,0,1-1.274-3.525,5.5,5.5,0,0,1,1.187-3.613,4.088,4.088,0,0,1,3.357-1.539,3.578,3.578,0,0,1,3.143,1.539A5.179,5.179,0,0,1,249.577,80.271Zm-2.034-.553a2.886,2.886,0,0,0-.414-1.639,1.863,1.863,0,0,0-1.7-.89,2.022,2.022,0,0,0-1.7.869,3.185,3.185,0,0,0-.631,1.658Z" transform="translate(-169.812 -72.016)" fill="#7b7b93"/>
    </g>
    <g id="Group_67" data-name="Group 67" transform="translate(1342.699 4067.554)">
      <path id="Path_19" data-name="Path 19" d="M176.34,33.159a13.622,13.622,0,0,1-1.534-.078V26.645a11.615,11.615,0,0,1,1.806-.136c2.446,0,3.573,1.2,3.573,3.165C180.185,31.936,178.854,33.159,176.34,33.159Zm.358-5.824a4.281,4.281,0,0,0-.844.068v4.892a5.537,5.537,0,0,0,.708.029,2.318,2.318,0,0,0,2.515-2.621A2.135,2.135,0,0,0,176.7,27.334Zm7,5.873a2.245,2.245,0,0,1-2.272-2.427,2.3,2.3,0,0,1,2.35-2.495,2.228,2.228,0,0,1,2.272,2.418A2.311,2.311,0,0,1,183.7,33.208Zm.04-4.155c-.757,0-1.243.708-1.243,1.7,0,.971.5,1.679,1.233,1.679s1.233-.757,1.233-1.7C184.958,29.771,184.473,29.053,183.736,29.053Zm10.172-.669L192.432,33.1h-.961l-.611-2.048a15.53,15.53,0,0,1-.379-1.523h-.02a10.211,10.211,0,0,1-.378,1.523l-.65,2.048h-.971l-1.389-4.717h1.078l.534,2.242q.189.8.32,1.514h.02c.077-.4.2-.893.388-1.5l.67-2.251h.854l.641,2.2c.155.534.281,1.058.379,1.553h.028a13.575,13.575,0,0,1,.32-1.553l.573-2.2h1.029ZM199.34,33.1h-1.048V30.392c0-.834-.32-1.252-.951-1.252a1.089,1.089,0,0,0-1.048,1.155V33.1h-1.049V29.732c0-.417-.01-.864-.039-1.349h.922l.049.728h.029a1.7,1.7,0,0,1,1.5-.824c.99,0,1.641.757,1.641,1.989V33.1Zm2.891,0h-1.049V26.219h1.049Zm3.823.107a2.246,2.246,0,0,1-2.272-2.427,2.3,2.3,0,0,1,2.349-2.495A2.227,2.227,0,0,1,208.4,30.7,2.311,2.311,0,0,1,206.054,33.208Zm.039-4.155c-.757,0-1.243.708-1.243,1.7,0,.971.5,1.679,1.232,1.679s1.233-.757,1.233-1.7c0-.96-.483-1.678-1.222-1.678Zm6.444,4.048-.076-.543h-.028a1.611,1.611,0,0,1-1.38.65,1.372,1.372,0,0,1-1.446-1.388c0-1.164,1.009-1.766,2.757-1.766v-.087c0-.621-.329-.932-.979-.932a2.208,2.208,0,0,0-1.233.35l-.213-.689a3.016,3.016,0,0,1,1.62-.408c1.233,0,1.855.65,1.855,1.951v1.737a7.127,7.127,0,0,0,.068,1.126Zm-.144-2.35c-1.165,0-1.749.282-1.749.951a.668.668,0,0,0,.719.737,1,1,0,0,0,1.029-.96Zm6.113,2.35-.049-.757h-.029a1.582,1.582,0,0,1-1.515.864,2.15,2.15,0,0,1-1.98-2.408A2.238,2.238,0,0,1,217,28.286a1.418,1.418,0,0,1,1.331.641h.021V26.219h1.05v5.61c0,.456.011.883.039,1.271Zm-.155-2.776a1.141,1.141,0,0,0-1.1-1.223c-.777,0-1.253.689-1.253,1.659,0,.951.493,1.6,1.232,1.6a1.177,1.177,0,0,0,1.126-1.252v-.786Zm7.7,2.883a2.245,2.245,0,0,1-2.271-2.427,2.3,2.3,0,0,1,2.349-2.495,2.227,2.227,0,0,1,2.272,2.418A2.31,2.31,0,0,1,226.055,33.208Zm.039-4.155c-.756,0-1.242.708-1.242,1.7,0,.971.5,1.679,1.232,1.679s1.233-.757,1.233-1.7c0-.96-.483-1.678-1.223-1.678Zm7.95,4.048h-1.049V30.392c0-.834-.32-1.252-.951-1.252A1.088,1.088,0,0,0,231,30.3V33.1h-1.049V29.732c0-.417-.01-.864-.039-1.349h.922l.049.728h.029a1.694,1.694,0,0,1,1.495-.825c.99,0,1.642.757,1.642,1.989ZM241.1,29.17h-1.154v2.29c0,.583.2.874.61.874a2.066,2.066,0,0,0,.465-.049l.029.8a2.323,2.323,0,0,1-.813.117c-.826,0-1.321-.456-1.321-1.65V29.17h-.688v-.786h.688v-.864l1.029-.311v1.174H241.1Zm5.551,3.931H245.6V30.412c0-.844-.319-1.271-.951-1.271a1.028,1.028,0,0,0-1.05,1.116V33.1h-1.048V26.219H243.6v2.834h.021a1.591,1.591,0,0,1,1.419-.767c1,0,1.609.776,1.609,2.009Zm5.687-2.106h-3.146a1.354,1.354,0,0,0,1.487,1.4,3.544,3.544,0,0,0,1.272-.223l.163.728a3.94,3.94,0,0,1-1.583.291,2.19,2.19,0,0,1-2.349-2.378,2.3,2.3,0,0,1,2.231-2.534,1.981,1.981,0,0,1,1.962,2.242,2.02,2.02,0,0,1-.036.475Zm-.961-.747c0-.728-.367-1.242-1.038-1.242a1.244,1.244,0,0,0-1.147,1.242Z" transform="translate(-174.806 -26.219)" fill="#7b7b93"/>
    </g>
  </g>
</svg>
