<svg width="14" height="14" xmlns="http://www.w3.org/2000/svg">

 <g>
  <title>background</title>
  <rect fill="none" id="canvas_background" height="402" width="582" y="-1" x="-1"/>
 </g>
 <g>
  <title>Layer 1</title>
  <path fill="#ffffff" d="m11.2,11.2a1.4,1.4 0 1 1 -1.4,1.4a1.4,1.4 0 0 1 1.4,-1.4m-11.2,-11.2l2.289,0l0.658,1.4l10.353,0a0.7,0.7 0 0 1 0.7,0.7a0.885,0.885 0 0 1 -0.084,0.35l-2.506,4.529a1.407,1.407 0 0 1 -1.225,0.721l-5.215,0l-0.63,1.141l-0.021,0.084a0.175,0.175 0 0 0 0.175,0.175l8.106,0l0,1.4l-8.4,0a1.4,1.4 0 0 1 -1.4,-1.4a1.427,1.427 0 0 1 0.168,-0.672l0.952,-1.715l-2.52,-5.313l-1.4,0l0,-1.4m4.2,11.2a1.4,1.4 0 1 1 -1.4,1.4a1.4,1.4 0 0 1 1.4,-1.4m6.3,-4.9l1.946,-3.5l-8.846,0l1.65,3.5l5.25,0z" id="prefix__cart-outline"/>
 </g>
</svg>