<svg xmlns="http://www.w3.org/2000/svg" width="14" height="14" viewBox="0 0 14 14">
    <path id="prefix__cart-outline" d="M12.2 13.2a1.4 1.4 0 1 1-1.4 1.4 1.4 1.4 0 0 1 1.4-1.4M1 2h2.289l.658 1.4H14.3a.7.7 0 0 1 .7.7.885.885 0 0 1-.084.35L12.41 8.979a1.407 1.407 0 0 1-1.225.721H5.97l-.63 1.141-.021.084a.175.175 0 0 0 .175.175H13.6v1.4H5.2a1.4 1.4 0 0 1-1.4-1.4 1.427 1.427 0 0 1 .168-.672l.952-1.715L2.4 3.4H1V2m4.2 11.2a1.4 1.4 0 1 1-1.4 1.4 1.4 1.4 0 0 1 1.4-1.4m6.3-4.9l1.946-3.5H4.6l1.65 3.5z" transform="translate(-1 -2)" style="fill:#00c99c"/>
</svg>
