<svg xmlns="http://www.w3.org/2000/svg" xmlns:xlink="http://www.w3.org/1999/xlink" width="118.151" height="39.997" viewBox="0 0 118.151 39.997">
  <defs>
    <linearGradient id="linear-gradient" x1="-0.505" y1="2.232" x2="-0.508" y2="2.226" gradientUnits="objectBoundingBox">
      <stop offset="0" stop-color="#064aa2"/>
      <stop offset="1" stop-color="#63ffd4"/>
    </linearGradient>
  </defs>
  <g id="googleplay" transform="translate(-850 -4257)">
    <g id="background" transform="translate(850 4257)" fill="none">
      <path d="M4.8,0H113.351a4.8,4.8,0,0,1,4.8,4.8V35.2a4.8,4.8,0,0,1-4.8,4.8H4.8A4.8,4.8,0,0,1,0,35.2V4.8A4.8,4.8,0,0,1,4.8,0Z" stroke="none"/>
      <path d="M 4.79962158203125 0.9999961853027344 C 2.704498291015625 0.9999961853027344 0.9999923706054688 2.704505920410156 0.9999923706054688 4.799629211425781 L 0.9999923706054688 35.19721221923828 C 0.9999923706054688 37.29232025146484 2.704498291015625 38.99682998657227 4.79962158203125 38.99682998657227 L 113.3510055541992 38.99682998657227 C 115.4461135864258 38.99682998657227 117.1506195068359 37.29232025146484 117.1506195068359 35.19721221923828 L 117.1506195068359 4.799629211425781 C 117.1506195068359 2.704505920410156 115.4461135864258 0.9999961853027344 113.3510055541992 0.9999961853027344 L 4.79962158203125 0.9999961853027344 M 4.79962158203125 -3.814697265625e-06 L 113.3510055541992 -3.814697265625e-06 C 115.9987869262695 -3.814697265625e-06 118.1506195068359 2.151828765869141 118.1506195068359 4.799629211425781 L 118.1506195068359 35.19721221923828 C 118.1506195068359 37.84499740600586 115.9987869262695 39.99682998657227 113.3510055541992 39.99682998657227 L 4.79962158203125 39.99682998657227 C 2.151840209960938 39.99682998657227 -7.62939453125e-06 37.84499740600586 -7.62939453125e-06 35.19721221923828 L -7.62939453125e-06 4.799629211425781 C -7.62939453125e-06 2.151828765869141 2.151840209960938 -3.814697265625e-06 4.79962158203125 -3.814697265625e-06 Z" stroke="none" fill="#7b7b93"/>
    </g>
    <g id="icon" transform="translate(854.798 4267)">
      <g id="blue" transform="translate(0.002 0.025)">
        <g id="Clip-2">
          <path id="path-3_1_" d="M11.119,10.159.4,0A.514.514,0,0,0,0,.56V20a.476.476,0,0,0,.24.48Z" fill="url(#linear-gradient)"/>
        </g>
        <path id="Fill-1" d="M14.079,7.468,9.6,4.989C9.583,5.029,1.432.5.96.269.48-.035,0,.133,0,.669V20.187c0,.432.344.608.72.4.456-.256,8.863-4.92,8.879-4.96l4.48-2.48c-.024.032,3.768-2.072,4.24-2.32.544-.312.488-.7.08-.88-.44-.256-4.344-2.44-4.32-2.48" transform="translate(0 -0.109)" fill="none"/>
      </g>
      <g id="red" transform="translate(0 0.034)">
        <path id="Fill-7" d="M6.6-122.511c-.016.04-8.167-4.488-8.639-4.72-.48-.3-.96-.136-.96.4v19.518c0,.432.344.608.72.4.456-.256,8.863-4.92,8.879-4.96l4.48-2.48c-.024.032,3.768-2.072,4.24-2.32.544-.312.488-.7.08-.88-.44-.256-4.344-2.44-4.32-2.48Z" transform="translate(3 127.382)" fill="#7b7b93"/>
      </g>
      <path id="orange" d="M139.03,93.835c.487.456,2.977,2.866,2.977,2.866s3.788-2.038,4.292-2.318.456-.664.032-.88-4.342-2.469-4.342-2.469Z" transform="translate(-127.907 -83.648)" fill="#fff" opacity="0.15"/>
      <g id="green" transform="translate(0 0)">
        <g id="Clip-5" transform="translate(0.392)" opacity="0.1">
          <path id="path-9_1_" d="M.476-.2A.859.859,0,0,0-.1-.292L10.627,9.884l2.968-2.808L9.123,4.6,2.364.852Z" transform="translate(0.1 0.308)" fill="#fff"/>
        </g>
        <path id="Fill-4" d="M9.079,7.468,4.6,4.989C4.583,5.029-3.56.5-4.04.269c-.48-.3-.96-.136-.96.4V20.187c0,.432.344.608.72.4.456-.256,8.863-4.92,8.879-4.96l4.48-2.48c-.024.032,3.768-2.072,4.24-2.32.544-.312.488-.7.08-.88-.44-.256-4.344-2.44-4.32-2.48" transform="translate(5 -0.084)" fill="none"/>
      </g>
      <path id="orange-2" data-name="orange" d="M.3,136.914c0,.416.344.592.76.368s8.831-4.9,8.831-4.9,1.144-.632,1.712-.952c.92-.512,2.772-1.514,2.772-1.514l-2.98-2.865Z" transform="translate(-0.274 -116.867)" fill="#fff" opacity="0.1"/>
    </g>
    <g id="Google-play" transform="translate(877.758 4273.079)">
      <path id="Fill-1_1_" d="M576.647,62.431l-.888.84c-.208.112-.408.248-.608.336a4.288,4.288,0,0,1-1.8.352,3.944,3.944,0,0,1-2.464-.728A4.833,4.833,0,0,1,569,59.3a4.212,4.212,0,0,1,4.248-4.3,3.587,3.587,0,0,1,1.9.52,3.076,3.076,0,0,1,1.3,1.848L572.1,59.136l-1.424.112c.464,2.368,2.056,3.744,3.816,3.744a4.563,4.563,0,0,0,2.128-.584S576.736,62.343,576.647,62.431Zm-2.656-4.752c.352-.128.528-.24.528-.5A1.835,1.835,0,0,0,572.7,55.56c-.728,0-2.1.584-2.1,2.608,0,.32.04.656.056.992Z" transform="translate(-523.484 -50.6)" fill="#7b7b93"/>
      <path id="Fill-2" d="M514.2,11.727c0,.72.128.832.736.888.32.04.632.056.944.088l-.68.408h-3.256c.424-.56.5-.616.5-.984v-.416L512.44.672H511L512.384,0h2.64a1.275,1.275,0,0,0-.816,1.184L514.2,11.727" transform="translate(-470.123)" fill="#7b7b93"/>
      <path id="Fill-3" d="M408.779,58.672a3.042,3.042,0,0,1-.24,5.144,1.314,1.314,0,0,0-.52.912,1.033,1.033,0,0,0,.48.8l.664.52a3.242,3.242,0,0,1,1.544,2.6c0,1.744-1.68,3.512-4.848,3.512-2.672,0-3.96-1.28-3.96-2.656a2.657,2.657,0,0,1,1.424-2.264,7.9,7.9,0,0,1,3.52-.856,1.972,1.972,0,0,1-.552-1.264,1.772,1.772,0,0,1,.184-.728c-.2.016-.408.04-.592.04a2.926,2.926,0,0,1-3.056-2.92,3.326,3.326,0,0,1,1.184-2.488,5,5,0,0,1,3.3-1.024h3.8l-1.184.672Zm-1.3,8.231a2.331,2.331,0,0,0-.424-.024,7.35,7.35,0,0,0-1.952.3,2.121,2.121,0,0,0-1.6,1.952c0,1.344,1.28,2.312,3.272,2.312,1.784,0,2.728-.872,2.728-2.04C409.507,68.431,408.891,67.919,407.484,66.9ZM408,63.32a1.875,1.875,0,0,0,.464-1.352c0-1.336-.784-3.408-2.312-3.408a1.714,1.714,0,0,0-1.288.616,2.136,2.136,0,0,0-.4,1.368c0,1.24.72,3.3,2.3,3.3A1.846,1.846,0,0,0,408,63.32Z" transform="translate(-369.751 -53.36)" fill="#7b7b93"/>
      <path id="Fill-4_1_" d="M292.5,63.959a4.385,4.385,0,0,1-4.5-4.416A4.6,4.6,0,0,1,292.784,55a4.351,4.351,0,0,1,4.416,4.416A4.54,4.54,0,0,1,292.5,63.959Zm2.3-1.512a3.407,3.407,0,0,0,.56-2.08c0-1.656-.776-4.808-3.08-4.808a2.561,2.561,0,0,0-1.672.64,2.867,2.867,0,0,0-.856,2.288c0,1.856.9,4.912,3.152,4.912A2.345,2.345,0,0,0,294.8,62.447Z" transform="translate(-264.962 -50.6)" fill="#7b7b93"/>
      <path id="Fill-5" d="M169.5,63.959a4.385,4.385,0,0,1-4.5-4.416A4.6,4.6,0,0,1,169.784,55a4.351,4.351,0,0,1,4.416,4.416A4.54,4.54,0,0,1,169.5,63.959Zm2.3-1.512a3.407,3.407,0,0,0,.56-2.08c0-1.656-.784-4.808-3.08-4.808a2.545,2.545,0,0,0-1.672.64,2.841,2.841,0,0,0-.856,2.288c0,1.856.912,4.912,3.152,4.912A2.345,2.345,0,0,0,171.8,62.447Z" transform="translate(-151.801 -50.6)" fill="#7b7b93"/>
      <path id="Fill-6" d="M11.983,22.007,9.5,22.583a18.069,18.069,0,0,1-2.872.3A6.207,6.207,0,0,1,0,16.543C0,13.152,2.592,10,7.023,10a9.875,9.875,0,0,1,2.664.368,6.757,6.757,0,0,1,2.3,1.088L10.535,12.84l-.608.136.432-.7a4.966,4.966,0,0,0-3.72-1.648,4.817,4.817,0,0,0-4.816,5.16,6.165,6.165,0,0,0,6.152,6.383,5.2,5.2,0,0,0,2.208-.432V18.919l-2.624.144,1.392-.752h3.688l-.448.44a.426.426,0,0,0-.176.28c-.016.16-.032.664-.032.848v2.128" transform="translate(0 -9.2)" fill="#7b7b93"/>
      <path id="Fill-7_1_" d="M720.936,62.511v4.728H720V55.216h.936v1.368A3.71,3.71,0,0,1,723.952,55c2.32,0,3.888,1.768,3.888,4.56,0,2.776-1.56,4.576-3.888,4.576A3.713,3.713,0,0,1,720.936,62.511Zm5.944-2.88c0-2.128-1.1-3.752-3.048-3.752a3.727,3.727,0,0,0-2.872,1.8v3.888a3.76,3.76,0,0,0,2.872,1.832C725.784,63.4,726.879,61.759,726.879,59.632Z" transform="translate(-662.405 -50.6)" fill="#7b7b93"/>
      <path id="Fill-8" d="M834,16h.96V28.079H834Z" transform="translate(-767.285 -14.72)" fill="#7b7b93"/>
      <path id="Fill-9" d="M965.92,68.247a2.246,2.246,0,0,0,.76.144c.576,0,.968-.232,1.328-1.064l.68-1.552L965,57h1.048l3.16,7.607L972.343,57H973.4l-4.5,10.615a2.3,2.3,0,0,1-2.208,1.624,3.675,3.675,0,0,1-.936-.128l.16-.864" transform="translate(-887.806 -52.44)" fill="#7b7b93"/>
      <path id="Fill-10" d="M870.26,63.951q-.1-.456-.144-.792a4.776,4.776,0,0,1-.048-.68,3.7,3.7,0,0,1-1.368,1.184,3.772,3.772,0,0,1-1.9.464,3.036,3.036,0,0,1-2.136-.688,2.394,2.394,0,0,1-.76-1.864,2.213,2.213,0,0,1,1.1-1.912,5.087,5.087,0,0,1,2.864-.736h2.192V57.84a1.818,1.818,0,0,0-.64-1.472,2.7,2.7,0,0,0-1.8-.536,2.871,2.871,0,0,0-1.728.488,1.493,1.493,0,0,0-.656,1.224h-.96l-.016-.048a2.027,2.027,0,0,1,.912-1.744,3.922,3.922,0,0,1,2.5-.752,3.88,3.88,0,0,1,2.48.744,2.537,2.537,0,0,1,.936,2.12v4.32a6.693,6.693,0,0,0,.056.9,6.137,6.137,0,0,0,.184.864H870.26Zm-3.344-.632a3.539,3.539,0,0,0,1.96-.536,2.687,2.687,0,0,0,1.184-1.376V59.72h-2.208a3.569,3.569,0,0,0-2.088.568,1.628,1.628,0,0,0-.824,1.368,1.513,1.513,0,0,0,.528,1.208A2.166,2.166,0,0,0,866.916,63.319Z" transform="translate(-794.794 -50.6)" fill="#7b7b93"/>
    </g>
    <g id="Get-it-on" transform="translate(877.438 4263.392)">
      <path id="Fill-1_2_" d="M0,3.732A2.867,2.867,0,0,1,3.088.9,2.832,2.832,0,0,1,5.456,2.036l-.84.448a1.953,1.953,0,0,0-1.528-.728A1.945,1.945,0,0,0,1.056,3.732,1.954,1.954,0,0,0,3.088,5.708a2.182,2.182,0,0,0,1.392-.5v-.84H2.72V3.524H5.5v2.04a3.281,3.281,0,0,1-2.416,1A2.863,2.863,0,0,1,0,3.732" transform="translate(0 -0.9)" fill="#7b7b93"/>
      <path id="Fill-2_1_" d="M85.5,7.5V2h4.088v.848h-3.04V4.264h2.976V5.12H86.548V6.656h3.04V7.5H85.5" transform="translate(-78.661 -1.912)" fill="#7b7b93"/>
      <path id="Fill-3_1_" d="M150.876,7.5V2.848H149.1V2h4.584v.848h-1.776V7.5h-1.032" transform="translate(-137.173 -1.912)" fill="#7b7b93"/>
      <path id="Fill-4_2_" d="M252.3,2h1V7.5h-1Z" transform="translate(-232.118 -1.912)" fill="#7b7b93"/>
      <path id="Fill-5_1_" d="M280.176,7.5V2.848H278.4V2h4.584v.848h-1.776V7.5h-1.032" transform="translate(-256.13 -1.912)" fill="#7b7b93"/>
      <path id="Fill-6_1_" d="M378.5,3.832a3.052,3.052,0,1,1,3.048,2.832A2.839,2.839,0,0,1,378.5,3.832Zm5-.048a1.96,1.96,0,1,0-3.92,0,1.96,1.96,0,1,0,3.92,0Z" transform="translate(-348.222 -0.992)" fill="#7b7b93"/>
      <path id="Fill-7_2_" d="M473.2,7.5l-3.064-3.936V7.5H469.1V2h1.056l3,3.816V2h1.032V7.5H473.2" transform="translate(-431.575 -1.912)" fill="#7b7b93"/>
    </g>
  </g>
</svg>
