<svg xmlns="http://www.w3.org/2000/svg" width="16" height="16" viewBox="0 0 16 16">
    <path id="prefix__link-variant" d="M9.537 11.978a.843.843 0 0 1 0 1.229.872.872 0 0 1-1.229 0 4.331 4.331 0 0 1 0-6.12l3.064-3.064a4.327 4.327 0 0 1 6.12 6.12l-1.29 1.29a5.979 5.979 0 0 0-.346-2.095l.407-.415a2.6 2.6 0 0 0-3.67-3.67L9.537 8.308a2.581 2.581 0 0 0 0 3.67m2.441-3.67a.872.872 0 0 1 1.229 0 4.331 4.331 0 0 1 0 6.12l-3.064 3.064a4.327 4.327 0 1 1-6.12-6.12l1.29-1.29a6.06 6.06 0 0 0 .346 2.1l-.407.407a2.6 2.6 0 0 0 3.67 3.67l3.055-3.055a2.581 2.581 0 0 0 0-3.67.843.843 0 0 1 .001-1.226z" transform="translate(-2.757 -2.758)" style="fill:#cecee2"/>
</svg>
