<svg xmlns="http://www.w3.org/2000/svg" width="12.19" height="16" viewBox="0 0 12.19 16">
    <path id="prefix__lock-outline" d="M10.1 13.19a1.524 1.524 0 1 1 1.524-1.524A1.523 1.523 0 0 1 10.1 13.19m4.571 2.286V7.857H5.524v7.619h9.143m0-9.143a1.524 1.524 0 0 1 1.523 1.524v7.619A1.524 1.524 0 0 1 14.667 17H5.524A1.523 1.523 0 0 1 4 15.476V7.857a1.519 1.519 0 0 1 1.524-1.524h.762V4.81a3.81 3.81 0 0 1 7.619 0v1.523h.762M10.1 2.524A2.286 2.286 0 0 0 7.81 4.81v1.523h4.571V4.81A2.286 2.286 0 0 0 10.1 2.524z" transform="translate(-4 -1)" style="fill:#f5a416"/>
</svg>
