<svg xmlns="http://www.w3.org/2000/svg" width="16" height="13.091" viewBox="0 0 16 13.091">
    <path id="prefix__eye-off-outline" d="M1.727 4.924L2.658 4l12.16 12.16-.924.931-2.24-2.24A8.421 8.421 0 0 1 9 15.273a8.6 8.6 0 0 1-8-5.455 8.548 8.548 0 0 1 2.32-3.3L1.727 4.924M9 7.636a2.185 2.185 0 0 1 2.058 2.909L8.273 7.76A2.181 2.181 0 0 1 9 7.636m0-3.272a8.6 8.6 0 0 1 8 5.455 8.574 8.574 0 0 1-2.909 3.775l-1.033-1.04a7.172 7.172 0 0 0 2.356-2.735A7.143 7.143 0 0 0 9 5.818a7.561 7.561 0 0 0-2.3.364L5.582 5.069A8.628 8.628 0 0 1 9 4.364M2.585 9.818a7.143 7.143 0 0 0 6.415 4 6.756 6.756 0 0 0 1.455-.153L8.8 12a2.228 2.228 0 0 1-1.978-1.978l-2.477-2.48a7.167 7.167 0 0 0-1.76 2.276z" transform="translate(-1 -4)" style="fill:#94949f"/>
</svg>
