<?xml version="1.0" encoding="utf-8"?>
<!-- Generator: Adobe Illustrator 24.1.1, SVG Export Plug-In . SVG Version: 6.00 Build 0)  -->
<svg version="1.1" id="Layer_1" xmlns="http://www.w3.org/2000/svg" xmlns:xlink="http://www.w3.org/1999/xlink" x="0px" y="0px"
	 viewBox="0 0 1000 1000" style="enable-background:new 0 0 1000 1000;" xml:space="preserve">
<style type="text/css">
	.st0{fill:#F68F46;}
	.st1{fill:#FBBD8A;}
	.st2{fill:#444444;}
	.st3{fill:#636464;}
</style>
<g>
	<path class="st0" d="M325.75,282.56c0.93-2.3,2.73-4.13,5-5.09l166.99-70.79c4.73-2,10.2,0.21,12.22,4.95l57.53,135.72
		c0.96,2.27,0.99,4.83,0.06,7.13c-0.93,2.28-2.72,4.11-5,5.09l-166.99,70.77c-1.18,0.51-2.42,0.75-3.64,0.75
		c-3.62,0-7.07-2.14-8.57-5.69l-57.54-135.72C324.85,287.41,324.82,284.85,325.75,282.56z"/>
	<path class="st1" d="M383.28,418.27c0.93-2.28,2.73-4.11,5-5.07l297.26-125.99c4.73-2.02,10.2,0.2,12.2,4.93l91.78,216.5
		c2,4.74-0.21,10.2-4.94,12.22L487.32,646.85c-1.15,0.49-2.39,0.75-3.63,0.75c-1.18,0-2.37-0.23-3.49-0.68
		c-2.28-0.93-4.11-2.73-5.07-5L383.35,425.4C382.38,423.13,382.36,420.57,383.28,418.27z"/>
	
		<rect x="449.37" y="220.98" transform="matrix(0.9207 -0.3903 0.3903 0.9207 -80.5017 211.7888)" class="st1" width="63.1" height="166.04"/>
	<g>
		<path class="st2" d="M516.62,716.01L286.98,174.19L516.62,716.01z"/>
		<path class="st2" d="M516.64,725.32c1.21,0,2.44-0.24,3.62-0.75c4.74-2,6.95-7.47,4.95-12.2L295.55,170.55
			c-2-4.74-7.47-6.95-12.2-4.93c-4.73,2-6.95,7.47-4.94,12.2l229.66,541.82C509.56,723.2,513,725.32,516.64,725.32z"/>
	</g>
	<path class="st3" d="M105.68,240.92l177.67-75.29c2.27-0.97,4.83-0.99,7.13-0.06c2.28,0.91,4.11,2.72,5.07,4.99l18.34,43.28
		c2.02,4.73-0.2,10.2-4.93,12.2l-177.67,75.31c-1.16,0.49-2.39,0.73-3.64,0.73c-1.18,0-2.37-0.23-3.49-0.68
		c-2.28-0.93-4.11-2.72-5.07-5l-18.34-43.27C98.73,248.4,100.94,242.93,105.68,240.92z"/>
	<polygon class="st0" points="632.4,309.73 731.43,543.39 673.34,568 574.3,334.36 	"/>
	<path class="st3" d="M480.05,629.7l374.06-158.55c2.27-0.96,4.83-0.97,7.13-0.06c2.28,0.93,4.11,2.73,5.07,5l32.96,77.73
		c0.96,2.27,0.99,4.83,0.06,7.13c-0.93,2.28-2.72,4.11-5,5.07L520.26,724.58c-1.15,0.49-2.4,0.75-3.63,0.75
		c-1.18,0-2.37-0.24-3.48-0.69c-2.3-0.93-4.13-2.72-5.09-4.99l-32.94-77.73C473.1,637.18,475.31,631.71,480.05,629.7z"/>
	<path class="st2" d="M470.14,606.33c60.47-25.63,130.54,2.72,156.17,63.19c25.63,60.47-2.72,130.54-63.19,156.17
		c-15.13,6.41-30.84,9.44-46.33,9.44c-46.41,0-90.62-27.28-109.84-72.63C381.32,702.02,409.67,631.97,470.14,606.33z"/>
	<path class="st3" d="M500.11,677.04c21.49-9.12,46.38,0.96,55.5,22.45c9.1,21.49-0.97,46.38-22.46,55.5
		c-5.38,2.27-10.96,3.35-16.46,3.35c-16.5,0-32.21-9.69-39.04-25.81C468.55,711.04,478.62,686.14,500.11,677.04z"/>
</g>
</svg>
