<?xml version="1.0" encoding="utf-8"?>
<!-- Generator: Adobe Illustrator 24.1.1, SVG Export Plug-In . SVG Version: 6.00 Build 0)  -->
<svg version="1.1" id="Layer_1" xmlns="http://www.w3.org/2000/svg" xmlns:xlink="http://www.w3.org/1999/xlink" x="0px" y="0px"
	 viewBox="0 0 1000 1000" style="enable-background:new 0 0 1000 1000;" xml:space="preserve">
<style type="text/css">
	.st0{fill-rule:evenodd;clip-rule:evenodd;fill:#636464;}
	.st1{fill-rule:evenodd;clip-rule:evenodd;fill:#444444;}
	.st2{fill-rule:evenodd;clip-rule:evenodd;fill:#F68F46;}
	.st3{fill:#F68F46;}
</style>
<g>
	<path class="st0" d="M811.97,494.28v154.02H100V494.28c0-38.88,31.84-70.67,70.72-70.67H741.3
		C780.19,423.62,811.97,455.4,811.97,494.28z"/>
	<path class="st1" d="M811.97,648.31v153.97c0,38.88-31.79,70.72-70.67,70.72H170.72c-38.88,0-70.72-31.84-70.72-70.72V648.31
		H811.97z"/>
	<path class="st2" d="M261.22,561.5h44.94c5.85,0,10.63,4.78,10.63,10.63v44.94c0,5.84-4.78,10.63-10.63,10.63h-44.94
		c-5.84,0-10.62-4.79-10.62-10.63v-44.94C250.6,566.29,255.38,561.5,261.22,561.5z"/>
	<path class="st2" d="M231.53,517.75h16.05l12.06,31.41h-52.79v-6.73C206.84,528.86,217.95,517.75,231.53,517.75L231.53,517.75z
		 M260.8,517.75h45.8l-12.07,31.41h-21.68L260.8,517.75L260.8,517.75z M319.81,517.75h16.05c13.58,0,24.68,11.11,24.68,24.69v6.73
		h-52.79L319.81,517.75L319.81,517.75z M360.54,561.51v26.92h-32.53v-23.91c0-1.03-0.11-2.04-0.32-3.01H360.54L360.54,561.51z
		 M239.38,588.43h-32.53v-26.92h32.86c-0.21,0.97-0.33,1.98-0.33,3.01V588.43L239.38,588.43z M360.54,600.77v26.92h-32.85
		c0.21-0.97,0.32-1.98,0.32-3.01v-23.91H360.54L360.54,600.77z M239.7,627.7h-32.86v-26.92h32.53v23.91
		C239.38,625.72,239.49,626.72,239.7,627.7L239.7,627.7z M360.54,640.04v6.73c0,13.57-11.1,24.68-24.68,24.68h-16.05l-12.06-31.41
		H360.54L360.54,640.04z M306.59,671.45H260.8l12.06-31.41h21.68L306.59,671.45L306.59,671.45z M247.58,671.45h-16.05
		c-13.57,0-24.68-11.11-24.68-24.68v-6.73h52.79L247.58,671.45z"/>
	<path class="st3" d="M681.13,799.24v-2.08l0.1,0.1l3.23-3.15h12.62v-21.25h-12.62l-3.33-3.13v-2.02l0.1,0.1l3.23-3.22h12.62v-21.25
		h-12.62l-3.33-3.06v-2.09l0.1,0.1l3.23-3.15h13.32l4.35,3.99l-0.07,0.07l3.09,3.36v22.79l-3.15,3.51l3.15,3.3v22.58l-3.93,4.56
		l-0.14-0.14l-3.3,3.15h-13.32L681.13,799.24z M681.13,738.18v2.09l-0.11-0.1l-3.23,3.15h-12.62v21.25h12.62l3.33,3.12v2.02
		l-0.11-0.1l-3.23,3.22h-12.62v21.25h12.62l3.33,3.06v2.08l-0.11-0.1l-3.23,3.15h-13.32l-4.35-3.99l0.14-0.14l-3.16-3.44v-22.58
		l3.16-3.51l-3.16-3.3v-22.65l3.93-4.42l0.07,0.07l3.37-3.22h13.32L681.13,738.18L681.13,738.18z M625.04,799.24v-2.08l0.11,0.1
		l3.22-3.15h12.62v-21.25h-12.62l-3.33-3.13v-2.02l0.11,0.1l3.22-3.22h13.32l4.35,4.06l-0.14,0.14l3.15,3.37v22.58l-3.93,4.56
		l-0.14-0.14l-3.3,3.15h-13.32L625.04,799.24L625.04,799.24z M625.04,740.27v-2.09l0.11,0.1l3.22-3.15h13.32l4.35,3.99l-4.35,4.21
		h-13.32L625.04,740.27z M229.02,802.3H215.9l-4.35-3.99l4.28-4.21h12.48v-21.95l3.15-3.51l-3.15-3.3v-22.02H215.9l-4.35-4l4.28-4.2
		h13.19l4.28,3.99l-0.14,0.14l3.22,3.37v22.71l-3.15,3.51l3.15,3.3v21.95h12.41l4.35,4l-4.28,4.2h-13.18l-3.44-3.15L229.02,802.3
		L229.02,802.3z M625.04,738.18v2.09l-0.11-0.1l-3.22,3.15h-12.62v21.25h12.62l3.33,3.12v2.02l-0.11-0.1l-3.22,3.22h-12.62v21.25
		h12.62l3.33,3.06v2.08l-0.11-0.1l-3.22,3.15h-13.33l-4.34-3.99l0.14-0.14l-3.15-3.44v-22.58l3.15-3.51l-3.15-3.3v-22.65l3.93-4.42
		l0.07,0.07l3.36-3.22h13.33L625.04,738.18L625.04,738.18z M285.11,802.3h-13.32l-4.34-3.99l0.14-0.14l-3.16-3.44v-22.58l3.93-4.42
		l0.07,0.07l3.36-3.22h13.32l3.44,3.22l3.23-3.22h12.62v-21.25h-12.62l-3.44-3.15l-3.23,3.15h-13.32l-4.34-4l4.34-4.2h13.32
		l3.44,3.15l3.23-3.15h13.32l4.35,3.99l-0.07,0.07l3.09,3.36v22.79l-3.93,4.42l-0.14-0.14l-3.3,3.22h-13.32l-3.44-3.22l-3.23,3.22
		h-12.62v21.25h12.62l3.44,3.15l3.23-3.15h13.32l4.35,4l-4.35,4.2h-13.32l-3.44-3.15L285.11,802.3L285.11,802.3z M341.35,802.3
		H328.1l-4.35-3.99l4.35-4.21h13.18l3.44,3.15l3.3-3.15h12.48v-21.25h-12.48l-4.35-4.07l4.35-4.2h12.48v-21.25h-12.48l-3.44-3.15
		l-3.23,3.15H328.1l-4.35-4l4.35-4.2h13.18l3.44,3.15l3.3-3.15h13.18l4.35,3.99l-0.07,0.07l3.09,3.36v22.79l-3.09,3.51l3.09,3.3
		v22.58l-3.93,4.56l-0.14-0.14l-3.23,3.15h-13.25l-3.44-3.15L341.35,802.3L341.35,802.3z M397.31,772.78h-13.33l-4.34-4.01
		l0.14-0.07l-3.15-3.39v-22.59l3.93-4.44l4.14,4.37v21.99h12.62l3.43,3.15l3.23-3.15h12.62v-21.95l3.93-4.42l4.13,4.35v22.71
		l-3.15,3.51l3.15,3.3v22.44l-3.93,4.49l-4.14-4.49v-21.81h-12.62l-3.44-3.15L397.31,772.78L397.31,772.78z M509.51,772.78h-13.33
		l-4.34-4.01l0.14-0.07l-3.15-3.39v-22.59l3.93-4.44l4.13,4.37v21.99h12.62l3.43,3.15l3.23-3.15h12.62v-21.95l3.92-4.42l4.14,4.35
		v22.71l-3.15,3.51l3.15,3.3v22.44l-3.93,4.49l-4.13-4.49v-21.81h-12.62l-3.44-3.15L509.51,772.78L509.51,772.78z M565.61,802.3
		h-13.33l-4.34-3.99l4.34-4.21h13.33l3.43,3.15l3.23-3.15h12.62v-21.25h-12.62l-3.44-3.22l-3.22,3.22h-13.33l-4.34-4.07l0.14-0.07
		l-3.15-3.37v-22.65l3.93-4.42l0.07,0.07l3.36-3.22h13.33l3.43,3.15l3.23-3.15h13.32l4.35,3.99l-4.35,4.21h-13.32l-3.44-3.15
		l-3.22,3.15h-12.62v21.25h12.62l3.43,3.22l3.23-3.22h13.32l4.35,4.06l-0.14,0.14l3.15,3.37v22.58l-3.93,4.56l-0.14-0.14l-3.3,3.15
		h-13.32l-3.44-3.15L565.61,802.3z"/>
	<g>
		<path class="st1" d="M837.38,203.6l-4.57-20.95c-8.27-37.99-46.13-62.3-84.12-54.03l-80.87,17.62L191.2,250.08
			c-37.99,8.28-62.3,46.13-54.02,84.12l4.56,20.95l526.08-114.61L837.38,203.6z"/>
		<path class="st1" d="M898.38,483.59l-36.34-166.81L667.82,359.1l-169.56,36.94h169.56h96.02c43.65,0,79.36,35.71,79.36,79.36
			v92.57l1.15-0.25C882.35,559.44,906.66,521.58,898.38,483.59z"/>
	</g>
</g>
</svg>
