<?xml version="1.0" encoding="utf-8"?>
<!-- Generator: Adobe Illustrator 24.1.1, SVG Export Plug-In . SVG Version: 6.00 Build 0)  -->
<svg version="1.1" id="Layer_1" xmlns="http://www.w3.org/2000/svg" xmlns:xlink="http://www.w3.org/1999/xlink" x="0px" y="0px"
	 viewBox="0 0 1000 1000" style="enable-background:new 0 0 1000 1000;" xml:space="preserve">
<style type="text/css">
	.st0{fill:#636464;}
	.st1{fill:#444444;}
	.st2{fill:#FBBD8A;}
	.st3{fill:#F68F46;}
	.st4{fill:#F79420;}
	.st5{fill:#FFFFFF;}
</style>
<g>
	<path class="st0" d="M886.36,252.95H113.39c-7.4,0-13.39,5.58-13.39,12.47v636.5c0,6.89,6,12.47,13.39,12.47h772.97
		c7.4,0,13.39-5.58,13.39-12.47v-636.5C899.76,258.53,893.76,252.95,886.36,252.95z"/>
	<path class="st1" d="M895.96,256.76L770.97,134.74c-2.5-2.44-5.86-3.81-9.36-3.81H238.38c-3.49,0-6.85,1.37-9.35,3.81
		L104.04,256.76c-3.9,3.8-5.11,9.58-3.05,14.63c2.06,5.04,6.96,8.35,12.4,8.35h773.21c5.44,0,10.34-3.3,12.4-8.35
		C901.07,266.34,899.86,260.56,895.96,256.76z"/>
	<rect x="430.11" y="277.05" class="st2" width="137.74" height="638.17"/>
	<polygon class="st3" points="539.28,131.27 458.68,131.27 430.11,278.89 567.86,278.89 	"/>
	<g>
		<path class="st4" d="M394.78,523.99l-75.66,150.06L394.78,523.99z"/>
		<path class="st5" d="M306.39,678.25c-1.07-3.25-0.92-6.92,0.75-10.22l75.69-150.06c3.33-6.6,11.37-9.25,17.98-5.92
			c6.6,3.33,9.25,11.38,5.93,17.99l-75.66,150.06c-3.33,6.6-11.39,9.26-18,5.93C309.77,684.35,307.46,681.5,306.39,678.25z"/>
	</g>
	<path class="st1" d="M285.31,854.99l86.03-170.6c13.07-25.93,2.61-57.67-23.31-70.75c-12.56-6.34-26.85-7.4-40.2-3
		c-13.38,4.41-24.23,13.76-30.56,26.32l-86.03,170.6c-6.53,12.96-7.19,27.39-2.97,40.2c4.22,12.81,13.33,24.02,26.28,30.55
		C240.48,891.38,272.22,880.92,285.31,854.99z"/>
	<path class="st2" d="M706.28,420.67c28.95-57.41,32.88-122.39,11.08-182.86c-20.17-55.92-60.5-101.45-113.6-128.24
		c-114.03-57.5-253.6-11.51-311.09,102.52c-26.78,53.09-32.13,113.68-15.12,170.63l0,0l0,0.01c0.64,2.13,1.31,4.24,2.01,6.35
		c19.34,58.7,60.19,106.17,115.63,134.12C509.22,580.69,648.78,534.7,706.28,420.67z M438.88,436.54
		c-33.49-16.88-58.57-47.26-68.85-83.34c-9.28-32.56-5.98-67.16,9.29-97.42c33.4-66.26,114.5-92.98,180.75-59.56
		c30.26,15.26,53.48,41.12,65.39,72.82c13.19,35.12,11.06,74.45-5.82,107.93C586.23,443.24,505.13,469.96,438.88,436.54z"/>
	<path class="st3" d="M706.38,420.76C648.9,534.68,509.25,580.75,395.13,523.27c-55.4-28.01-96.28-75.53-115.58-134.26
		c-0.62-2.07-1.24-4.15-1.87-6.22c-10.17-33.83-12.45-69.1-6.85-103.13h99.39c-7.05,23.86-7.26,49.18-0.21,73.45
		c10.38,36.11,35.48,66.61,68.89,83.42c66.19,33.41,147.33,6.64,180.74-59.55c15.15-30.09,18.47-64.95,9.34-97.32h99.19
		C736.05,327.59,728.59,376.36,706.38,420.76z"/>
</g>
</svg>
