<?xml version="1.0" encoding="utf-8"?>
<!-- Generator: Adobe Illustrator 24.1.1, SVG Export Plug-In . SVG Version: 6.00 Build 0)  -->
<svg version="1.1" id="Layer_1" xmlns="http://www.w3.org/2000/svg" xmlns:xlink="http://www.w3.org/1999/xlink" x="0px" y="0px"
	 viewBox="0 0 1000 1000" style="enable-background:new 0 0 1000 1000;" xml:space="preserve">
<style type="text/css">
	.st0{fill:#F68F46;}
	.st1{fill:#444444;}
	.st2{fill:#233872;}
	.st3{fill:#636464;}
	.st4{fill:#FBBD8A;}
	.st5{fill:#FFFFFF;}
</style>
<g>
	<g>
		<path class="st0" d="M900,614.55v83.71c0,16.96-13.75,30.71-30.71,30.71H257.63c-16.96,0-30.71-13.75-30.71-30.71v-53.84h460.27
			l1.94-153.21c0-2.33,0.39-4.66,1.29-6.72h52.23v130.07H900z"/>
		<path class="st1" d="M663.13,377.21v219.07c0,19.05-8.28,36.31-21.35,48.18c-11.67,10.77-27.13,17.26-44.09,17.26H254.02
			c-9.68,0-18.85-2.1-27.13-5.99c-22.64-10.28-38.31-33.12-38.31-59.46v-49.28c27.83,16.86,60.45,26.63,95.27,26.63
			c61.25,0,115.52-30.03,148.94-76.11h-43.49c-27.23,26.74-64.44,43.1-105.44,43.1c-36.11,0-69.33-12.67-95.27-33.92V377.81
			c0-13.77,4.29-26.44,11.47-37.01c0,0-0.1,0,0-0.1c6.09-8.78,14.07-15.86,23.54-20.85c9.08-4.79,19.45-7.48,30.43-7.48h343.66
			c25.34,0,47.48,14.46,58.36,35.71c0.7,1.4,1.4,2.79,2,4.29c0.8,2,1.5,3.89,2.19,5.99c0.6,2.09,1.1,4.19,1.6,6.28
			c0.4,2.09,0.7,4.29,1,6.48C663.03,373.12,663.13,375.21,663.13,377.21z"/>
		<g>
			<path class="st2" d="M833.84,731.77c0,28.26-22.92,51.18-51.18,51.18c-28.26,0-51.17-22.92-51.17-51.18
				c0-28.26,22.91-51.18,51.17-51.18C810.92,680.59,833.84,703.51,833.84,731.77z"/>
			<path class="st2" d="M782.66,794.07c-34.35,0-62.3-27.95-62.3-62.3c0-34.35,27.95-62.3,62.3-62.3c34.36,0,62.3,27.95,62.3,62.3
				C844.96,766.13,817.02,794.07,782.66,794.07z M782.66,691.72c-22.08,0-40.05,17.97-40.05,40.06c0,22.08,17.97,40.05,40.05,40.05
				s40.06-17.97,40.06-40.05C822.72,709.68,804.74,691.72,782.66,691.72z"/>
		</g>
		<path class="st3" d="M663.13,377.21v120.31H189.68V377.21c0-13.07,3.99-25.34,10.97-35.41c6.09-8.88,14.36-16.16,24.14-21.05
			c9.08-4.79,19.35-7.38,30.23-7.38h342.76c25.44,0,47.28,14.07,58.26,34.72c0.7,1.4,1.4,2.79,2,4.29c0.8,2,1.5,3.89,2.19,5.99
			c0.6,2.09,1.1,4.19,1.6,6.28c0.4,2.09,0.7,4.29,1,6.48C663.03,373.12,663.13,375.21,663.13,377.21z"/>
		<path class="st1" d="M328.74,669.47c-34.36,0-62.3,27.95-62.3,62.3c0,34.36,27.95,62.3,62.3,62.3c34.35,0,62.3-27.95,62.3-62.3
			C391.04,697.42,363.09,669.47,328.74,669.47z"/>
		<path class="st1" d="M782.66,669.47c-34.35,0-62.3,27.95-62.3,62.3c0,34.36,27.95,62.3,62.3,62.3c34.36,0,62.3-27.95,62.3-62.3
			C844.96,697.42,817.02,669.47,782.66,669.47z"/>
		<path class="st3" d="M782.66,700.55c-17.21,0-31.22,14-31.22,31.22c0,17.21,14,31.22,31.22,31.22c17.21,0,31.22-14,31.22-31.22
			C813.89,714.56,799.88,700.55,782.66,700.55z"/>
		<path class="st3" d="M328.74,700.55c-17.21,0-31.22,14-31.22,31.22c0,17.21,14,31.22,31.22,31.22c17.21,0,31.22-14,31.22-31.22
			C359.96,714.56,345.95,700.55,328.74,700.55z"/>
		<path class="st3" d="M900,521.72v92.83h-14.61v-78.22c0-28.57-23.14-51.85-51.72-51.85h-91.02v-14.61h105.63
			C876.86,469.87,900,493.14,900,521.72z"/>
		<path class="st4" d="M742.65,469.87v14.61h-52.23c2.71-8.53,10.73-14.61,20.17-14.61H742.65z"/>
		<path class="st1" d="M885.39,536.33v78.22H742.65V484.48h91.02C862.25,484.48,885.39,507.75,885.39,536.33z"/>
	</g>
	<g>
		<g>
			<path class="st5" d="M451.24,373.92v31.72c0,34.62-11.57,66.44-31.02,91.88h-30.92c-27.23,26.74-64.44,43.1-105.44,43.1
				c-36.11,0-69.33-12.67-95.27-33.92v28.03c-43.19-26.63-72.02-74.52-72.02-129.09v-31.72c0-83.7,67.73-151.53,151.43-151.53h31.72
				c61.75,0,114.92,36.91,138.46,89.98c0.2,0.3,0.3,0.6,0.5,1C446.75,331.92,451.24,352.37,451.24,373.92z"/>
			<path class="st1" d="M451.04,313.36c-0.1-0.4-0.3-0.7-0.5-1c-29.23-62.85-92.87-106.44-166.69-106.44
				C182.5,205.93,100,288.42,100,389.78c0,66.54,35.51,124.9,88.58,157.22v-40.3c-33.92-27.73-55.56-69.83-55.56-116.92
				c0-83.2,67.74-150.83,150.83-150.83c54.97,0,103.05,29.43,129.48,73.42c0.2,0.3,0.4,0.7,0.5,1
				c13.27,22.45,20.85,48.58,20.85,76.41c0,42.2-17.36,80.4-45.39,107.74h43.49c21.95-30.23,34.91-67.53,34.91-107.74
				C467.7,362.54,461.72,336.61,451.04,313.36z"/>
			<path class="st3" d="M420.22,497.51c-27.73,36.31-71.33,59.65-120.51,59.65h-31.72c-29.13,0-56.36-8.18-79.41-22.45v-28.03
				c25.94,21.25,59.16,33.92,95.27,33.92c41,0,78.21-16.36,105.44-43.1H420.22z"/>
			<path class="st3" d="M432.79,497.51c-33.42,46.09-87.69,76.11-148.94,76.11c-34.82,0-67.44-9.78-95.27-26.63v-12.27
				c23.04,14.27,50.28,22.45,79.41,22.45h31.72c49.18,0,92.77-23.34,120.51-59.65H432.79z"/>
		</g>
		<path class="st1" d="M386.85,381.64H286.1l-59.44-59.44c-6.45-6.45-16.91-6.45-23.36,0c-6.45,6.45-6.45,16.91,0,23.36l69.11,69.11
			v0h114.43c9.12,0,16.52-7.39,16.52-16.52C403.37,389.03,395.97,381.64,386.85,381.64z"/>
	</g>
</g>
</svg>
