<svg xmlns="http://www.w3.org/2000/svg" width="10.8" height="12" viewBox="0 0 10.8 12">
    <path id="prefix__package-variant-closed" d="M13.8 10.7a.6.6 0 0 1-.318.528l-4.74 2.664a.6.6 0 0 1-.684 0l-4.74-2.664A.6.6 0 0 1 3 10.7V5.3a.6.6 0 0 1 .318-.528l4.74-2.664a.6.6 0 0 1 .684 0l4.74 2.664a.6.6 0 0 1 .318.528v5.4M8.4 3.29l-1.134.642L10.8 5.966l1.176-.666L8.4 3.29M4.824 5.3L8.4 7.31l1.176-.66-3.528-2.04-1.224.69M4.2 10.346l3.6 2.028V8.348L4.2 6.326v4.02m8.4 0v-4.02L9 8.348v4.026z" transform="translate(-3 -2)" style="fill:#b5b5ce"/>
</svg>
