<svg xmlns="http://www.w3.org/2000/svg" width="40.003" height="40" viewBox="0 0 40.003 40">
    <g id="prefix__airplane" transform="translate(-9.128 -.499)">
        <path id="prefix__Path_12" d="M118.352 30.043l1.358-1.358a2.193 2.193 0 0 0-2.768-3.375l-.286-.96 1.47-1.47a2.192 2.192 0 0 0-2.887-3.286l-1.739-5.848c.7-.67 1.362-1.322 1.99-1.95a23.173 23.173 0 0 0 4.141-5.396c1.457-2.82.847-4.328.079-5.1s-2.275-1.378-5.1.079a23.151 23.151 0 0 0-5.394 4.143c-.628.628-1.28 1.294-1.95 1.99l-5.848-1.742a2.191 2.191 0 0 0-3.286-2.887l-1.47 1.47-.962-.28a2.193 2.193 0 0 0-3.37-2.767l-1.358 1.357L84.052.6a.7.7 0 0 0-.695.176l-1.781 1.783a.706.706 0 0 0 .081 1.059L99.118 16.4c-3.937 4.439-7.729 8.883-10.407 12.058l-5.136-1.976a.7.7 0 0 0-.746.158l-2.111 2.111a.7.7 0 0 0 0 .989L91.274 40.3a.706.706 0 0 0 .99 0l2.111-2.111a.7.7 0 0 0 .158-.746L92.558 32.3c3.175-2.677 7.619-6.47 12.058-10.407l1.387 1.9a.7.7 0 0 0 1.13-.826l-1.466-2c2.321-2.072 4.614-4.162 6.694-6.132l6.593 22.133-.909.909-9.061-12.38a.7.7 0 1 0-1.129.827l9.545 13.034a.706.706 0 0 0 1.059.081l1.781-1.781a.7.7 0 0 0 .176-.695zM99.126 3.879A.793.793 0 1 1 100.247 5l-.328.328-1.729-.515zM93.32 2.3a.793.793 0 0 1 1.122 1.122l-.216.215-1.726-.519zm-10.177.676l.909-.909 22.133 6.593c-1.97 2.08-4.06 4.373-6.132 6.694zm.355 24.98l4.261 1.639c-1.069 1.273-1.888 2.257-2.372 2.84L82.2 29.246zm2.883 5.473c2.439-2.943 15.334-18.412 23.829-26.907a22.059 22.059 0 0 1 5.047-3.889c1.142-.59 2.67-1.127 3.464-.333s.257 2.322-.333 3.464a22.07 22.07 0 0 1-3.889 5.047C106 19.3 90.535 32.2 87.591 34.635zm6.683 4.094l-1.294 1.29-3.184-3.184c.582-.483 1.567-1.3 2.84-2.371zM117.6 26.574a.793.793 0 1 1 1.122 1.122l-.822.822-.515-1.728zm-1.583-5.806a.793.793 0 1 1 1.122 1.122l-.935.935-.515-1.729zm0 0" data-name="Path 12" transform="translate(-71.386)" style="fill:#f12699"/>
    </g>
</svg>
