<svg xmlns="http://www.w3.org/2000/svg" width="39.884" height="40" viewBox="0 0 39.884 40">
    <defs>
        <style>
            .prefix__cls-1{fill:#f5a416}
        </style>
    </defs>
    <g id="prefix__business-and-finance" transform="translate(-.195 .004)">
        <path id="prefix__Path_10" d="M40.079 23.378h-1.33V18.06a3.328 3.328 0 0 0-3.324-3.324H33.54l1.795-3.11A1.994 1.994 0 0 0 34.6 8.9L19.632.259a2 2 0 0 0-2.721.731L8.978 14.736h-5.46A3.328 3.328 0 0 0 .195 18.06v18.612A3.328 3.328 0 0 0 3.518 40h31.908a3.328 3.328 0 0 0 3.324-3.324v-5.322h1.329zm-5.894-12.417l-3.717 6.434H18.449L25.5 5.179l8.442 4.874a.674.674 0 0 1 .243.908zm-20.342 6.434l8.205-14.208 2.3 1.329-7.433 12.879zm4.224-15.74a.664.664 0 0 1 .907-.243l1.926 1.11-8.592 14.873H8.977zM37.42 36.672a1.994 1.994 0 0 1-1.994 1.994H3.518a1.994 1.994 0 0 1-1.994-1.994V18.06a1.994 1.994 0 0 1 1.994-1.994H8.21l-.77 1.329H4.183v1.329h30.578v-1.329H32l.768-1.329h2.654a1.994 1.994 0 0 1 1.998 1.994v5.318h-7.312a3.328 3.328 0 0 0-3.324 3.322v1.329a3.328 3.328 0 0 0 3.324 3.324h7.312zm1.329-6.647h-8.641a1.994 1.994 0 0 1-1.994-1.994V26.7a1.994 1.994 0 0 1 1.994-1.994h8.642zm0 0" class="prefix__cls-1" data-name="Path 10"/>
        <path id="prefix__Path_11" d="M344.2 306.522a1.131 1.131 0 1 0 1.131-1.131 1.131 1.131 0 0 0-1.131 1.131zm1.131-.377a.377.377 0 1 1-.377.377.377.377 0 0 1 .372-.377zm0 0" class="prefix__cls-1" data-name="Path 11" transform="translate(-314.043 -278.803)"/>
    </g>
</svg>
