<svg xmlns="http://www.w3.org/2000/svg" width="33.899" height="40" viewBox="0 0 33.899 40">
    <defs>
        <style>
            .prefix__cls-1{fill:#15b2ec}
        </style>
    </defs>
    <g id="prefix__shopping-bag" transform="translate(-15.359)">
        <g id="prefix__Group_5" data-name="Group 5" transform="translate(27.755)">
            <g id="prefix__Group_4" data-name="Group 4">
                <path id="prefix__Path_1" d="M86.634 4.731a5.516 5.516 0 0 0-9.916-2.465.649.649 0 1 0 1.047.765 4.219 4.219 0 0 1 7.585 1.883.649.649 0 0 0 .642.557.7.7 0 0 0 .092-.006.649.649 0 0 0 .55-.734z" class="prefix__cls-1" data-name="Path 1" transform="translate(-76.593)"/>
            </g>
        </g>
        <g id="prefix__Group_7" data-name="Group 7" transform="translate(16.656 8.864)">
            <g id="prefix__Group_6" data-name="Group 6">
                <path id="prefix__Path_2" d="M53.391 47.932l-2.041-3.245a.687.687 0 0 0-.584-.315h-1.957a.65.65 0 1 0 0 1.3h1.571l1.225 1.947H24.067l1.225-1.947h.721a.65.65 0 1 0 0-1.3h-1.106a.687.687 0 0 0-.584.315l-2.041 3.245a.624.624 0 0 0-.009.654.686.686 0 0 0 .592.329h29.942a.687.687 0 0 0 .592-.329.623.623 0 0 0-.008-.654z" class="prefix__cls-1" data-name="Path 2" transform="translate(-22.185 -44.372)"/>
            </g>
        </g>
        <g id="prefix__Group_9" data-name="Group 9" transform="translate(33.919 3.636)">
            <g id="prefix__Group_8" data-name="Group 8">
                <path id="prefix__Path_3" d="M116.057 21.5a.648.648 0 0 0-.4-.29l-8.846-2.069a.648.648 0 0 0-.78.484l-.667 2.852a.649.649 0 0 0 1.264.3l.519-2.219 7.582 1.774-1.191 5.094a.648.648 0 0 0 .484.779.656.656 0 0 0 .149.017.648.648 0 0 0 .631-.5l1.339-5.726a.646.646 0 0 0-.084-.496z" class="prefix__cls-1" data-name="Path 3" transform="translate(-105.343 -19.126)"/>
            </g>
        </g>
        <g id="prefix__Group_11" data-name="Group 11" transform="translate(19.186 1.972)">
            <g id="prefix__Group_10" data-name="Group 10">
                <path id="prefix__Path_4" d="M48.232 15.947l-.591-5a.649.649 0 0 0-.721-.568l-10.853 1.282a.649.649 0 0 0-.568.721l.986 8.341a.649.649 0 0 0 .644.573.709.709 0 0 0 .077 0 .649.649 0 0 0 .568-.721l-.91-7.7 9.564-1.13.515 4.356a.649.649 0 0 0 1.289-.152z" class="prefix__cls-1" data-name="Path 4" transform="translate(-35.494 -10.374)"/>
            </g>
        </g>
        <g id="prefix__Group_13" data-name="Group 13" transform="translate(24.684 6.567)">
            <g id="prefix__Group_12" data-name="Group 12">
                <path id="prefix__Path_5" d="M74.018 38.622l-1.288-5.356a.648.648 0 0 0-.783-.479L61.494 35.3a.649.649 0 0 0-.479.783l.644 2.677a.649.649 0 1 0 1.262-.3l-.492-2.046L71.62 34.2l1.136 4.725a.649.649 0 0 0 1.262-.3z" class="prefix__cls-1" data-name="Path 5" transform="translate(-60.997 -32.769)"/>
            </g>
        </g>
        <g id="prefix__Group_15" data-name="Group 15" transform="translate(15.359 11.68)">
            <g id="prefix__Group_14" data-name="Group 14">
                <path id="prefix__Path_6" d="M47.9 62.1a.684.684 0 0 0-.677-.655h-29.83a.684.684 0 0 0-.677.655l-1.357 26.935a.7.7 0 0 0 .186.511.673.673 0 0 0 .492.215h32.542a.675.675 0 0 0 .492-.215.7.7 0 0 0 .186-.511zM16.75 88.379l1.286-25.557h28.543l1.286 25.557z" class="prefix__cls-1" data-name="Path 6" transform="translate(-15.359 -61.441)"/>
            </g>
        </g>
        <g id="prefix__Group_17" data-name="Group 17" transform="translate(35.475 14.988)">
            <g id="prefix__Group_16" data-name="Group 16">
                <path id="prefix__Path_7" d="M118 75.093a1.947 1.947 0 1 0 1.947 1.947A1.949 1.949 0 0 0 118 75.093zm0 2.6a.649.649 0 1 1 .649-.649.649.649 0 0 1-.649.645z" class="prefix__cls-1" data-name="Path 7" transform="translate(-116.052 -75.093)"/>
            </g>
        </g>
        <g id="prefix__Group_19" data-name="Group 19" transform="translate(25.247 14.988)">
            <g id="prefix__Group_18" data-name="Group 18">
                <path id="prefix__Path_8" d="M66.8 75.093a1.947 1.947 0 1 0 1.947 1.947 1.949 1.949 0 0 0-1.947-1.947zm0 2.6a.649.649 0 1 1 .649-.649.65.65 0 0 1-.649.645z" class="prefix__cls-1" data-name="Path 8" transform="translate(-64.852 -75.093)"/>
            </g>
        </g>
        <g id="prefix__Group_21" data-name="Group 21" transform="translate(26.792 17.197)">
            <g id="prefix__Group_20" data-name="Group 20">
                <path id="prefix__Path_9" d="M82.061 85.333h-.05a.649.649 0 0 0-.649.649.642.642 0 0 0 .05.25v3.319a4.218 4.218 0 0 1-8.436 0v-3.569a.649.649 0 1 0-1.3 0v3.569a5.516 5.516 0 0 0 11.031 0v-3.569a.649.649 0 0 0-.646-.649z" class="prefix__cls-1" data-name="Path 9" transform="translate(-71.679 -85.333)"/>
            </g>
        </g>
    </g>
</svg>
